HIERARCHY
ROOT Hips
{
 OFFSET 0.000000 0.000000 0.000000
 CHANNELS 6 Xposition Yposition Zposition Yrotation Xrotation Zrotation
 JOINT Chest
 {
  OFFSET 0.000000 10.080317 -0.001081
  CHANNELS 3 Yrotation Xrotation Zrotation
  JOINT Chest2
  {
   OFFSET 0.000000 11.096852 0.001963
   CHANNELS 3 Yrotation Xrotation Zrotation
   JOINT Chest3
   {
    OFFSET 0.000000 10.026525 0.000000
    CHANNELS 3 Yrotation Xrotation Zrotation
    JOINT Chest4
    {
     OFFSET 0.000000 10.026525 0.000000
     CHANNELS 3 Yrotation Xrotation Zrotation
     JOINT Neck
     {
      OFFSET 0.000000 14.108171 0.000000
      CHANNELS 3 Yrotation Xrotation Zrotation
      JOINT Head
      {
       OFFSET 0.000000 9.333493 0.004668
       CHANNELS 3 Yrotation Xrotation Zrotation
       End Site
       {
        OFFSET 0.000000 17.851786 0.002438
       }
      }
     }
     JOINT RightCollar
     {
      OFFSET -3.071622 7.873185 0.000000
      CHANNELS 3 Yrotation Xrotation Zrotation
      JOINT RightShoulder
      {
       OFFSET -14.378659 0.000000 0.000000
       CHANNELS 3 Yrotation Xrotation Zrotation
       JOINT RightElbow
       {
        OFFSET -30.778728 0.000000 0.000000
        CHANNELS 3 Yrotation Xrotation Zrotation
        JOINT RightWrist
        {
         OFFSET -25.164217 0.000000 0.000000
         CHANNELS 3 Yrotation Xrotation Zrotation
         End Site
         {
          OFFSET -18.796788 0.000000 0.000000
         }
        }
       }
      }
     }
     JOINT LeftCollar
     {
      OFFSET 3.071622 7.873185 0.000000
      CHANNELS 3 Yrotation Xrotation Zrotation
      JOINT LeftShoulder
      {
       OFFSET 14.378659 0.000000 0.000000
       CHANNELS 3 Yrotation Xrotation Zrotation
       JOINT LeftElbow
       {
        OFFSET 30.778728 0.000000 0.000000
        CHANNELS 3 Yrotation Xrotation Zrotation
        JOINT LeftWrist
        {
         OFFSET 25.164217 0.000000 0.000000
         CHANNELS 3 Yrotation Xrotation Zrotation
         End Site
         {
          OFFSET 18.796788 0.000000 0.000000
         }
        }
       }
      }
     }
    }
   }
  }
 }
 JOINT RightHip
 {
  OFFSET -8.194923 0.005295 0.000540
  CHANNELS 3 Yrotation Xrotation Zrotation
  JOINT RightKnee
  {
   OFFSET 0.000000 -42.473320 -0.000511
   CHANNELS 3 Yrotation Xrotation Zrotation
   JOINT RightAnkle
   {
    OFFSET 0.000000 -41.474259 -0.000865
    CHANNELS 3 Yrotation Xrotation Zrotation
    JOINT RightToe
    {
     OFFSET 0.000000 -7.354994 16.712725
     CHANNELS 3 Yrotation Xrotation Zrotation
     End Site
     {
      OFFSET 0.000000 -1.553903 6.764158
     }
    }
   }
  }
 }
 JOINT LeftHip
 {
  OFFSET 8.194923 0.005295 0.000540
  CHANNELS 3 Yrotation Xrotation Zrotation
  JOINT LeftKnee
  {
   OFFSET 0.000000 -42.473320 -0.000511
   CHANNELS 3 Yrotation Xrotation Zrotation
   JOINT LeftAnkle
   {
    OFFSET 0.000000 -41.474259 -0.000865
    CHANNELS 3 Yrotation Xrotation Zrotation
    JOINT LeftToe
    {
     OFFSET 0.000000 -7.354994 16.712725
     CHANNELS 3 Yrotation Xrotation Zrotation
     End Site
     {
      OFFSET 0.000000 -1.553903 6.764158
     }
    }
   }
  }
 }
}
MOTION
Frames: 9
Frame Time: 0.016667
343.836502 86.829837 -277.146888 -3.716488 7.778983 8.228563 12.047874 8.522917 3.654661 5.319063 3.913395 1.576576 5.319063 3.913395 1.576576 3.977668 2.949048 1.147967 -23.741675 14.408883 11.550105 -47.709777 -1.014024 28.704664 10.292797 -16.916596 10.828141 23.167920 -40.348928 60.940210 26.711202 -47.622882 44.277705 11.235201 -25.096051 -19.435094 -27.682953 -7.664639 -3.124097 -35.260676 -39.343523 -70.042042 -86.068179 31.905986 -70.091178 0.996141 14.179153 29.481252 -36.270472 5.496616 -19.661555 -20.788553 2.814232 -4.443945 -19.525824 -7.452085 10.173361 -0.288610 -1.642474 2.480179 -3.389909 -37.234453 -7.129357 -15.124657 31.454543 -7.914382 -2.452999 -2.432142 -1.035474 -0.076856 0.579571 0.395935
343.788771 86.579850 -276.981479 -2.784377 8.172472 8.390956 12.049441 8.401565 3.487695 5.418121 3.926078 1.564636 5.418121 3.926078 1.564636 4.051966 2.958721 1.138268 -23.939725 14.334447 11.770264 -48.144550 -0.948901 29.157921 9.975400 -17.153611 10.963333 22.949389 -40.497290 61.623975 24.785385 -46.733817 44.274348 10.749636 -25.267124 -18.820092 -28.003388 -7.726670 -2.941801 -35.069686 -39.418484 -70.055287 -86.345672 31.427502 -70.110118 0.927764 14.146334 29.536231 -36.647969 5.266263 -19.539159 -20.389941 2.953920 -4.599437 -19.181008 -7.081499 9.838409 -0.248164 -2.061822 2.412694 -3.755606 -37.761931 -7.309470 -15.343817 31.662312 -8.095986 -2.516737 -2.960358 -0.916425 -0.169010 0.940002 0.330875
343.801215 86.546502 -276.827122 -2.289732 8.384929 8.381193 12.334231 8.462660 3.517550 5.494733 3.937768 1.572246 5.494733 3.937768 1.572246 4.109315 2.967762 1.143375 -24.058006 14.191248 11.932309 -48.447924 -1.063448 29.524529 9.700912 -17.384169 11.145616 22.786709 -40.687915 62.166000 23.670582 -46.041781 43.810415 10.348631 -25.255640 -18.342264 -28.238585 -7.787032 -2.830937 -34.835907 -39.484654 -70.066231 -86.579428 30.968349 -70.016411 0.929106 14.135825 29.565021 -36.678574 5.369321 -19.434553 -20.121918 3.001594 -4.739698 -18.939453 -7.150283 9.649831 -0.205312 -1.961338 2.247307 -3.877305 -38.060633 -7.374058 -15.618353 31.870747 -8.273115 -2.575662 -3.088834 -0.850355 -0.157118 0.906826 0.308793
343.828944 86.393722 -276.699613 -1.720443 8.612482 8.370357 12.403170 8.465376 3.562526 5.562823 3.945338 1.589149 5.562823 3.945338 1.589149 4.160228 2.973776 1.155541 -24.110085 14.012610 12.048368 -48.635714 -1.289558 29.814730 9.420389 -17.575439 11.312600 22.751751 -40.805542 62.507326 23.244579 -45.696037 43.133011 10.137169 -25.174073 -18.096353 -28.421987 -7.868870 -2.749345 -34.522495 -39.561695 -70.151742 -86.766841 30.514218 -69.880508 0.913134 14.111284 29.609701 -36.783519 5.421165 -19.283423 -20.101314 3.042823 -4.846129 -18.501229 -6.978409 9.562975 -0.223119 -2.043584 1.979506 -4.281267 -38.456965 -7.336808 -15.753571 32.164510 -8.420028 -2.618842 -3.448434 -0.782247 -0.143965 1.076239 0.274123
343.857325 86.233824 -276.597212 -1.271395 8.826833 8.299979 12.431659 8.434676 3.668000 5.602766 3.945032 1.618435 5.602766 3.945032 1.618435 4.189987 2.973924 1.177245 -24.082508 13.833063 12.116253 -48.670625 -1.575886 30.007304 9.228024 -17.654047 11.372494 22.851386 -40.863476 62.641987 23.288490 -45.603806 42.440042 10.101709 -25.022975 -17.967581 -28.497694 -7.967923 -2.747817 -34.207084 -39.585478 -70.227433 -86.653370 29.972325 -69.269958 0.873986 14.300147 29.330836 -36.772220 5.521221 -19.099279 -20.184620 3.045216 -4.910390 -18.171340 -6.722132 9.508434 -0.185026 -2.132264 1.713319 -4.726479 -38.843896 -7.188533 -15.871115 32.470273 -8.597303 -2.562973 -3.816562 -0.677667 -0.162492 1.247731 0.214931
343.890727 86.107377 -276.498345 -0.925350 9.013010 8.207302 12.394788 8.391815 3.772030 5.608924 3.941808 1.642657 5.608924 3.941808 1.642657 4.194459 2.971745 1.195397 -23.977496 13.674117 12.168726 -48.556003 -1.868888 30.149937 9.075607 -17.663840 11.395248 23.002807 -40.948348 62.533648 23.481515 -45.412935 41.983425 9.947710 -24.934636 -17.672104 -28.505510 -8.041498 -2.796720 -34.101111 -39.617122 -70.214723 -86.108969 29.481746 -68.474146 0.848036 14.512865 29.708409 -36.745343 5.622286 -18.894416 -20.247564 3.028945 -4.931942 -17.978631 -6.599929 9.440335 -0.139187 -2.064711 1.465197 -5.146648 -39.194302 -7.012079 -15.970770 32.777997 -8.744251 -2.524426 -4.112209 -0.609267 -0.143834 1.343963 0.175748
343.905528 86.005348 -276.429549 -0.664555 9.164816 8.061312 12.282640 8.336116 3.911957 5.587623 3.936255 1.660483 5.587623 3.936255 1.660483 4.178396 2.967684 1.208952 -23.813094 13.567342 12.202854 -48.310886 -2.108124 30.226198 8.923380 -17.599431 11.384782 23.162793 -41.058923 62.303006 23.809333 -45.169148 41.765762 9.676038 -24.814650 -17.300933 -28.463714 -8.099540 -2.878610 -34.073438 -39.497901 -70.112549 -85.881223 29.464619 -68.325980 0.667087 14.317221 30.221724 -36.816166 5.715577 -18.672515 -20.255454 2.995363 -4.933428 -17.886767 -6.467280 9.384740 -0.062834 -1.981425 1.244370 -5.600818 -39.500451 -6.710916 -15.946139 33.067663 -8.895651 -2.486369 -4.371843 -0.509964 -0.186844 1.427625 0.126235
343.907649 85.922170 -276.374120 -0.574581 9.266441 7.887810 12.155306 8.330535 4.038907 5.546039 3.934432 1.662642 5.546039 3.934432 1.662642 4.147212 2.966219 1.210854 -23.606177 13.497554 12.227776 -47.973149 -2.307484 30.261452 8.779650 -17.501295 11.338778 23.620273 -41.032531 61.728974 24.443997 -45.223964 41.591029 9.598443 -24.673705 -17.233945 -28.343351 -8.181887 -2.942833 -33.896952 -39.270433 -70.011838 -86.121053 29.511062 -68.615200 0.742876 14.311350 30.019161 -36.977325 5.782585 -18.507945 -20.186217 2.938008 -4.897088 -17.662493 -6.417949 9.343245 0.009626 -1.858573 1.023313 -5.895057 -39.713347 -6.402127 -15.891495 33.345367 -9.030995 -2.463152 -4.616331 -0.426866 -0.238215 1.490045 0.090372
343.916550 85.859942 -276.329277 -0.692025 9.392608 7.767346 11.963445 8.346859 4.050784 5.480768 3.928401 1.651847 5.480768 3.928401 1.651847 4.098368 2.961414 1.203234 -23.381019 13.452616 12.225577 -47.586435 -2.485624 30.234034 8.693650 -17.321544 11.251233 24.185160 -40.885526 61.086046 25.475257 -45.351927 41.321715 9.401536 -24.525080 -17.122316 -28.024459 -8.269115 -3.032023 -33.468000 -39.058589 -69.982347 -86.640402 29.700385 -69.032501 0.954083 14.164829 29.451989 -37.138772 5.713299 -18.424227 -20.070123 2.876101 -4.860417 -17.377870 -6.406382 9.360239 0.044059 -1.702228 0.795041 -5.913640 -39.861467 -6.210951 -15.877317 33.512091 -9.169646 -2.371138 -4.816387 -0.348946 -0.313892 1.543252 0.061082
